<svg width="44" height="46" viewBox="0 0 44 46" fill="none" xmlns="http://www.w3.org/2000/svg">
<path d="M33 15.4043C33 12.4268 31.8411 9.57132 29.7782 7.46593C27.7153 5.36053 24.9174 4.17773 22 4.17773C19.0826 4.17773 16.2847 5.36053 14.2218 7.46593C12.1589 9.57132 11 12.4268 11 15.4043C11 28.502 5.5 32.2442 5.5 32.2442H38.5C38.5 32.2442 33 28.502 33 15.4043Z" stroke="#FFFCFA" stroke-width="4" stroke-linecap="round" stroke-linejoin="round"/>
<path d="M25.1715 39.7285C24.8491 40.2956 24.3865 40.7663 23.8299 41.0935C23.2732 41.4208 22.6422 41.593 21.9998 41.593C21.3574 41.593 20.7263 41.4208 20.1697 41.0935C19.6131 40.7663 19.1504 40.2956 18.8281 39.7285" stroke="#FFFCFA" stroke-width="4" stroke-linecap="round" stroke-linejoin="round"/>
</svg>
