<svg width="43" height="42" viewBox="0 0 43 42" fill="none" xmlns="http://www.w3.org/2000/svg">
<path d="M39.9999 19.8101C40.007 22.5232 39.3731 25.1996 38.1499 27.6212C36.6996 30.5232 34.47 32.964 31.7108 34.6703C28.9517 36.3766 25.7719 37.2811 22.5277 37.2823C19.8147 37.2894 17.1383 36.6555 14.7166 35.4323L3 39.3379L6.90555 27.6212C5.68235 25.1996 5.04848 22.5232 5.05555 19.8101C5.05681 16.566 5.96125 13.3862 7.66758 10.6271C9.37391 7.8679 11.8147 5.63828 14.7166 4.18795C17.1383 2.96475 19.8147 2.33088 22.5277 2.33795H23.5555C27.84 2.57432 31.8868 4.38273 34.921 7.41693C37.9552 10.4511 39.7636 14.4979 39.9999 18.7824V19.8101Z" stroke="white" stroke-width="4.66667" stroke-linecap="round" stroke-linejoin="round"/>
</svg>
