<svg width="80" height="80" viewBox="0 0 80 80" fill="none" xmlns="http://www.w3.org/2000/svg">
<path d="M14.1985 62.22C13.9525 62.2215 13.7089 62.1709 13.4838 62.0716C13.2587 61.9722 13.0572 61.8263 12.8925 61.6435C12.7278 61.4607 12.6037 61.2451 12.5283 61.0109C12.4528 60.7767 12.4279 60.5292 12.4549 60.2846L13.7975 48.0793C13.8453 47.6892 14.0235 47.3266 14.3032 47.0505L42.8288 18.5249C43.3471 18.0056 43.9626 17.5936 44.6403 17.3125C45.318 17.0314 46.0444 16.8867 46.7781 16.8867C47.5118 16.8867 48.2382 17.0314 48.9159 17.3125C49.5936 17.5936 50.2091 18.0056 50.7274 18.5249L56.1501 23.9475C56.6693 24.4658 57.0813 25.0814 57.3624 25.7591C57.6435 26.4367 57.7882 27.1632 57.7882 27.8968C57.7882 28.6305 57.6435 29.357 57.3624 30.0346C57.0813 30.7123 56.6693 31.3279 56.1501 31.8461L27.6419 60.3543C27.3657 60.634 27.0032 60.8122 26.6131 60.86L14.4078 62.2026L14.1985 62.22ZM17.215 49.0557L16.1688 58.5061L25.6193 57.4599L53.6916 29.3876C53.8866 29.1933 54.0414 28.9623 54.147 28.7079C54.2526 28.4536 54.307 28.1809 54.307 27.9056C54.307 27.6302 54.2526 27.3575 54.147 27.1032C54.0414 26.8489 53.8866 26.6179 53.6916 26.4235L48.2515 20.9834C48.0571 20.7883 47.8261 20.6336 47.5718 20.5279C47.3174 20.4223 47.0448 20.368 46.7694 20.368C46.494 20.368 46.2213 20.4223 45.967 20.5279C45.7127 20.6336 45.4817 20.7883 45.2873 20.9834L17.215 49.0557Z" fill="white"/>
<path d="M50.8145 36.4333C50.585 36.4346 50.3575 36.3906 50.1451 36.3039C49.9327 36.2171 49.7394 36.0893 49.5765 35.9277L38.7486 25.0649C38.5861 24.9023 38.4571 24.7093 38.3691 24.4969C38.2811 24.2845 38.2358 24.0568 38.2358 23.8269C38.2358 23.597 38.2811 23.3694 38.3691 23.1569C38.4571 22.9445 38.5861 22.7515 38.7486 22.589C38.9112 22.4264 39.1042 22.2974 39.3166 22.2094C39.529 22.1215 39.7567 22.0762 39.9866 22.0762C40.2165 22.0762 40.4442 22.1215 40.6566 22.2094C40.869 22.2974 41.062 22.4264 41.2246 22.589L52.0873 33.4517C52.2507 33.6138 52.3805 33.8067 52.469 34.0191C52.5575 34.2316 52.6031 34.4595 52.6031 34.6897C52.6031 34.9199 52.5575 35.1478 52.469 35.3602C52.3805 35.5727 52.2507 35.7656 52.0873 35.9277C51.9203 36.0935 51.7214 36.2238 51.5026 36.3107C51.2839 36.3976 51.0498 36.4393 50.8145 36.4333Z" fill="white"/>
<path d="M38.7571 33.4567L25.1826 47.0312L27.6485 49.4971L41.223 35.9226L38.7571 33.4567Z" fill="white"/>
<path d="M63.0205 62.2177H35.1225C34.6601 62.2177 34.2166 62.034 33.8896 61.707C33.5626 61.38 33.3789 60.9365 33.3789 60.4741C33.3789 60.0117 33.5626 59.5682 33.8896 59.2412C34.2166 58.9142 34.6601 58.7305 35.1225 58.7305H63.0205C63.4829 58.7305 63.9264 58.9142 64.2534 59.2412C64.5804 59.5682 64.7641 60.0117 64.7641 60.4741C64.7641 60.9365 64.5804 61.38 64.2534 61.707C63.9264 62.034 63.4829 62.2177 63.0205 62.2177Z" fill="white"/>
<path d="M1.5 40C1.5 18.737 18.737 1.5 40 1.5C61.263 1.5 78.5 18.737 78.5 40C78.5 61.263 61.263 78.5 40 78.5C18.737 78.5 1.5 61.263 1.5 40Z" stroke="white" stroke-width="3"/>
</svg>
