<svg width="43" height="45" viewBox="0 0 43 45" fill="none" xmlns="http://www.w3.org/2000/svg">
<g clip-path="url(#clip0_94_526)">
<path d="M21.5 28.3375C24.4685 28.3375 26.875 25.8802 26.875 22.8489C26.875 19.8177 24.4685 17.3604 21.5 17.3604C18.5315 17.3604 16.125 19.8177 16.125 22.8489C16.125 25.8802 18.5315 28.3375 21.5 28.3375Z" stroke="#FFFCFA" stroke-width="4" stroke-linecap="round" stroke-linejoin="round"/>
<path d="M34.7582 28.3369C34.5197 28.8887 34.4485 29.5008 34.5539 30.0943C34.6593 30.6878 34.9364 31.2354 35.3494 31.6666L35.4569 31.7764C35.7901 32.1162 36.0544 32.5198 36.2347 32.964C36.415 33.4082 36.5079 33.8843 36.5079 34.3651C36.5079 34.846 36.415 35.3221 36.2347 35.7663C36.0544 36.2105 35.7901 36.6141 35.4569 36.9539C35.1241 37.2941 34.7289 37.564 34.2939 37.7481C33.8589 37.9323 33.3926 38.0271 32.9217 38.0271C32.4508 38.0271 31.9845 37.9323 31.5495 37.7481C31.1145 37.564 30.7193 37.2941 30.3865 36.9539L30.279 36.8441C29.8567 36.4224 29.3204 36.1394 28.7392 36.0318C28.158 35.9242 27.5586 35.9969 27.0182 36.2404C26.4883 36.4723 26.0363 36.8574 25.718 37.3482C25.3996 37.8391 25.2288 38.4143 25.2265 39.003V39.314C25.2265 40.2844 24.849 41.2151 24.177 41.9013C23.505 42.5875 22.5935 42.973 21.6432 42.973C20.6928 42.973 19.7814 42.5875 19.1094 41.9013C18.4374 41.2151 18.0598 40.2844 18.0598 39.314V39.1493C18.046 38.5438 17.854 37.9565 17.5089 37.4638C17.1638 36.9711 16.6816 36.5958 16.1248 36.3868C15.5844 36.1432 14.985 36.0706 14.4038 36.1782C13.8226 36.2858 13.2863 36.5687 12.864 36.9905L12.7565 37.1003C12.4237 37.4405 12.0285 37.7104 11.5935 37.8945C11.1585 38.0786 10.6922 38.1734 10.2213 38.1734C9.75039 38.1734 9.2841 38.0786 8.84909 37.8945C8.41408 37.7104 8.01888 37.4405 7.68609 37.1003C7.35292 36.7605 7.08862 36.3569 6.90829 35.9127C6.72796 35.4685 6.63514 34.9924 6.63514 34.5115C6.63514 34.0307 6.72796 33.5545 6.90829 33.1103C7.08862 32.6661 7.35292 32.2626 7.68609 31.9227L7.79359 31.813C8.20663 31.3818 8.48371 30.8341 8.5891 30.2407C8.69448 29.6472 8.62334 29.0351 8.38484 28.4832C8.15772 27.9421 7.78061 27.4806 7.29992 27.1556C6.81923 26.8305 6.25596 26.6561 5.67942 26.6537H5.37484C4.42448 26.6537 3.51304 26.2682 2.84104 25.582C2.16903 24.8958 1.7915 23.9651 1.7915 22.9947C1.7915 22.0243 2.16903 21.0936 2.84104 20.4074C3.51304 19.7212 4.42448 19.3357 5.37484 19.3357H5.53609C6.12912 19.3215 6.70426 19.1255 7.18675 18.7731C7.66923 18.4207 8.03674 17.9283 8.2415 17.3598C8.48 16.808 8.55115 16.1959 8.44576 15.6024C8.34038 15.0089 8.0633 14.4612 7.65025 14.0301L7.54275 13.9203C7.20959 13.5805 6.94529 13.1769 6.76496 12.7327C6.58463 12.2885 6.49181 11.8124 6.49181 11.3315C6.49181 10.8507 6.58463 10.3745 6.76496 9.93032C6.94529 9.48612 7.20959 9.08257 7.54275 8.74275C7.87555 8.40254 8.27075 8.13266 8.70576 7.94852C9.14077 7.76438 9.60706 7.6696 10.078 7.6696C10.5489 7.6696 11.0152 7.76438 11.4502 7.94852C11.8852 8.13266 12.2804 8.40254 12.6132 8.74275L12.7207 8.85252C13.1429 9.27429 13.6792 9.55722 14.2604 9.66483C14.8417 9.77244 15.4411 9.6998 15.9815 9.45626H16.1248C16.6548 9.22434 17.1067 8.83926 17.425 8.34842C17.7434 7.85758 17.9142 7.2824 17.9165 6.69369V6.38267C17.9165 5.41223 18.294 4.48154 18.966 3.79534C19.638 3.10914 20.5495 2.72363 21.4998 2.72363C22.4502 2.72363 23.3616 3.10914 24.0336 3.79534C24.7056 4.48154 25.0832 5.41223 25.0832 6.38267V6.54733C25.0855 7.13604 25.2563 7.71122 25.5746 8.20206C25.893 8.6929 26.3449 9.07798 26.8748 9.3099C27.4152 9.55343 28.0147 9.62608 28.5959 9.51847C29.1771 9.41086 29.7134 9.12793 30.1357 8.70616L30.2432 8.59639C30.576 8.25618 30.9712 7.98629 31.4062 7.80216C31.8412 7.61802 32.3075 7.52324 32.7784 7.52324C33.2493 7.52324 33.7156 7.61802 34.1506 7.80216C34.5856 7.98629 34.9808 8.25618 35.3136 8.59639C35.6468 8.93621 35.9111 9.33976 36.0914 9.78396C36.2717 10.2282 36.3645 10.7043 36.3645 11.1852C36.3645 11.666 36.2717 12.1421 36.0914 12.5863C35.9111 13.0305 35.6468 13.4341 35.3136 13.7739L35.2061 13.8837C34.793 14.3149 34.516 14.8625 34.4106 15.456C34.3052 16.0495 34.3763 16.6616 34.6148 17.2134V17.3598C34.842 17.9009 35.2191 18.3624 35.6998 18.6874C36.1804 19.0125 36.7437 19.1869 37.3203 19.1893H37.6248C38.5752 19.1893 39.4866 19.5748 40.1586 20.261C40.8306 20.9472 41.2082 21.8779 41.2082 22.8483C41.2082 23.8188 40.8306 24.7495 40.1586 25.4357C39.4866 26.1219 38.5752 26.5074 37.6248 26.5074H37.4636C36.8871 26.5097 36.3238 26.6842 35.8431 27.0092C35.3624 27.3343 34.9853 27.7958 34.7582 28.3369Z" stroke="#FFFCFA" stroke-width="4" stroke-linecap="round" stroke-linejoin="round"/>
</g>
<defs>
<clipPath id="clip0_94_526">
<rect width="43" height="43.9084" fill="white" transform="translate(0 0.894531)"/>
</clipPath>
</defs>
</svg>
